<svg id="Layer_1" data-name="Layer 1" xmlns="http://www.w3.org/2000/svg" xmlns:xlink="http://www.w3.org/1999/xlink" viewBox="0 0 199.652 190.946"><defs><style>.cls-1{fill:url(#linear-gradient);}.cls-2{fill:none;stroke:#fff;stroke-linecap:round;stroke-linejoin:round;stroke-width:3px;}</style><linearGradient id="linear-gradient" x1="20.516" y1="16.492" x2="163.072" y2="159.049" gradientTransform="translate(-14.352 17.185) rotate(-9.653)" gradientUnits="userSpaceOnUse"><stop offset="0" stop-color="#f97556"/><stop offset="1" stop-color="#ff4a73"/></linearGradient></defs><title>description-icon-2</title><path class="cls-1" d="M15.953,19.783A73.019,73.019,0,0,0,3.009,47.444C-0.228,61.227-.16,75.565.622,89.7c2.528,45.7,25.213,95.035,75.733,100.63,33.888,3.752,65.958-9.951,88.509-34.121,28.452-30.494,55.884-92,11.874-130.458-28.421-24.835-48.954-7.726-83.8-15.839-16.324-3.8-32.672-13.137-49.81-8.779C31.954,3.977,22.817,10.9,15.953,19.783Z" transform="translate(-0.174)"/><g id="_Group_" data-name="&lt;Group&gt;"><path id="_Path_" data-name="&lt;Path&gt;" class="cls-2" d="M131.689,112.075L100,137.043,68.311,112.075a11.78,11.78,0,0,1-4.489-9.253V62.317A8.414,8.414,0,0,1,72.236,53.9h55.529a8.414,8.414,0,0,1,8.414,8.414v40.506A11.78,11.78,0,0,1,131.689,112.075Z" transform="translate(-0.174)"/><line id="_Path_2" data-name="&lt;Path&gt;" class="cls-2" x1="125.373" y1="106.484" x2="128.803" y2="106.484"/><line id="_Path_3" data-name="&lt;Path&gt;" class="cls-2" x1="66.733" y1="106.484" x2="118.388" y2="106.484"/><path id="_Path_4" data-name="&lt;Path&gt;" class="cls-2" d="M88.392,124.7s11.431-9.719,23.216,0" transform="translate(-0.174)"/><g id="_Group_2" data-name="&lt;Group&gt;"><line id="_Path_5" data-name="&lt;Path&gt;" class="cls-2" x1="83.18" y1="62.309" x2="83.18" y2="89.515"/><line id="_Path_6" data-name="&lt;Path&gt;" class="cls-2" x1="116.472" y1="62.309" x2="116.472" y2="89.515"/><line id="_Path_7" data-name="&lt;Path&gt;" class="cls-2" x1="99.26" y1="98.21" x2="99.26" y2="61.188"/></g></g></svg>