<svg id="Layer_1" data-name="Layer 1" xmlns="http://www.w3.org/2000/svg" xmlns:xlink="http://www.w3.org/1999/xlink" viewBox="0 0 199.652 190.946"><defs><style>.cls-1{fill:url(#linear-gradient);}.cls-2{fill:none;stroke:#fff;stroke-linecap:round;stroke-linejoin:round;stroke-width:3px;}</style><linearGradient id="linear-gradient" x1="20.516" y1="16.492" x2="163.072" y2="159.049" gradientTransform="translate(-14.352 17.185) rotate(-9.653)" gradientUnits="userSpaceOnUse"><stop offset="0" stop-color="#f97556"/><stop offset="1" stop-color="#ff4a73"/></linearGradient></defs><title>description-icon-1</title><path class="cls-1" d="M15.953,19.783A73.019,73.019,0,0,0,3.009,47.444C-0.228,61.227-.16,75.565.622,89.7c2.528,45.7,25.213,95.035,75.733,100.63,33.888,3.752,65.958-9.951,88.509-34.121,28.452-30.494,55.884-92,11.874-130.458-28.421-24.835-48.954-7.726-83.8-15.839-16.324-3.8-32.672-13.137-49.81-8.779C31.954,3.977,22.817,10.9,15.953,19.783Z" transform="translate(-0.174)"/><path id="_Path_" data-name="&lt;Path&gt;" class="cls-2" d="M83.865,79.391v50.594a6.1,6.1,0,0,0,6.1,6.1h20.062a6.1,6.1,0,0,0,6.1-6.106L116.12,79.388a6.1,6.1,0,0,0-.741-2.913L105.361,58.046a6.1,6.1,0,0,0-10.725,0L84.607,76.473A6.1,6.1,0,0,0,83.865,79.391Z" transform="translate(-0.174)"/><g id="_Group_" data-name="&lt;Group&gt;"><path id="_Path_2" data-name="&lt;Path&gt;" class="cls-2" d="M83.82,97.3l-20.4,13.474a6.1,6.1,0,0,0-2.909,5.2v6.76a6.1,6.1,0,0,0,6.1,6.1H83.82" transform="translate(-0.174)"/><path id="_Path_3" data-name="&lt;Path&gt;" class="cls-2" d="M116.18,97.3l20.4,13.474a6.1,6.1,0,0,1,2.909,5.2v6.76a6.1,6.1,0,0,1-6.1,6.1H116.18" transform="translate(-0.174)"/></g><path id="_Path_4" data-name="&lt;Path&gt;" class="cls-2" d="M90.685,78.856h0a12.667,12.667,0,0,1,18.631,0h0" transform="translate(-0.174)"/><line id="_Path_5" data-name="&lt;Path&gt;" class="cls-2" x1="99.826" y1="99.034" x2="99.826" y2="116.626"/><line id="_Path_6" data-name="&lt;Path&gt;" class="cls-2" x1="99.826" y1="125.79" x2="99.826" y2="123.628"/></svg>