<svg id="Layer_1" data-name="Layer 1" xmlns="http://www.w3.org/2000/svg" xmlns:xlink="http://www.w3.org/1999/xlink" viewBox="0 0 199.652 190.946"><defs><style>.cls-1{fill:url(#linear-gradient);}.cls-2{fill:none;stroke:#fff;stroke-linecap:round;stroke-linejoin:round;stroke-width:3px;}</style><linearGradient id="linear-gradient" x1="20.516" y1="16.492" x2="163.072" y2="159.049" gradientTransform="translate(-14.352 17.185) rotate(-9.653)" gradientUnits="userSpaceOnUse"><stop offset="0" stop-color="#f97556"/><stop offset="1" stop-color="#ff4a73"/></linearGradient></defs><title>description-icon-3</title><path class="cls-1" d="M15.953,19.783A73.019,73.019,0,0,0,3.009,47.444C-0.228,61.227-.16,75.565.622,89.7c2.528,45.7,25.213,95.035,75.733,100.63,33.888,3.752,65.958-9.951,88.509-34.121,28.452-30.494,55.884-92,11.874-130.458-28.421-24.835-48.954-7.726-83.8-15.839-16.324-3.8-32.672-13.137-49.81-8.779C31.954,3.977,22.817,10.9,15.953,19.783Z" transform="translate(-0.174)"/><g id="_Group_" data-name="&lt;Group&gt;"><path id="_Path_" data-name="&lt;Path&gt;" class="cls-2" d="M99.956,60.8H65.166a5.5,5.5,0,0,0-5.5,5.5v58.348a5.5,5.5,0,0,0,5.5,5.5h69.667a5.5,5.5,0,0,0,5.5-5.5V81.317a5.5,5.5,0,0,0-1.61-3.888L122.784,62.466a5.5,5.5,0,0,0-3.888-1.61h-8.928" transform="translate(-0.174)"/><path id="_Path_2" data-name="&lt;Path&gt;" class="cls-2" d="M77.216,130.145l0.039-26.024a5.5,5.5,0,0,1,5.5-5.49h34.533a5.5,5.5,0,0,1,5.5,5.5v23.987" transform="translate(-0.174)"/><g id="_Group_2" data-name="&lt;Group&gt;"><line id="_Path_3" data-name="&lt;Path&gt;" class="cls-2" x1="85.423" y1="109.191" x2="114.229" y2="109.191"/><line id="_Path_4" data-name="&lt;Path&gt;" class="cls-2" x1="85.423" y1="115.762" x2="114.229" y2="115.762"/><line id="_Path_5" data-name="&lt;Path&gt;" class="cls-2" x1="85.423" y1="122.334" x2="114.229" y2="122.334"/></g><polyline id="_Path_6" data-name="&lt;Path&gt;" class="cls-2" points="86.124 60.801 86.124 80.817 113.528 80.817 113.528 63.468"/><line id="_Path_7" data-name="&lt;Path&gt;" class="cls-2" x1="107.498" y1="67.155" x2="107.498" y2="74.715"/><g id="_Group_3" data-name="&lt;Group&gt;"><line id="_Path_8" data-name="&lt;Path&gt;" class="cls-2" x1="132.697" y1="102.73" x2="132.697" y2="123.472"/><line id="_Path_9" data-name="&lt;Path&gt;" class="cls-2" x1="132.697" y1="97.353" x2="132.697" y2="95.561"/></g></g></svg>